<?xml version="1.0" encoding="UTF-8" standalone="no"?>
<!-- Created with Inkscape (http://www.inkscape.org/) -->

<svg
   width="48mm"
   height="48mm"
   viewBox="0 0 48 48"
   version="1.1"
   id="svg137"
   inkscape:version="1.2 (dc2aedaf03, 2022-05-15)"
   sodipodi:docname="Question mark.svg"
   xmlns:inkscape="http://www.inkscape.org/namespaces/inkscape"
   xmlns:sodipodi="http://sodipodi.sourceforge.net/DTD/sodipodi-0.dtd"
   xmlns="http://www.w3.org/2000/svg"
   xmlns:svg="http://www.w3.org/2000/svg">
  <sodipodi:namedview
     id="namedview139"
     pagecolor="#ffffff"
     bordercolor="#000000"
     borderopacity="0.25"
     inkscape:showpageshadow="2"
     inkscape:pageopacity="0.0"
     inkscape:pagecheckerboard="0"
     inkscape:deskcolor="#d1d1d1"
     inkscape:document-units="px"
     showgrid="true"
     showguides="false"
     inkscape:zoom="4.051698"
     inkscape:cx="86.75375"
     inkscape:cy="87.24737"
     inkscape:window-width="1920"
     inkscape:window-height="991"
     inkscape:window-x="-9"
     inkscape:window-y="-9"
     inkscape:window-maximized="1"
     inkscape:current-layer="layer1">
    <inkscape:grid
       type="xygrid"
       id="grid141"
       originx="0"
       originy="0" />
  </sodipodi:namedview>
  <defs
     id="defs134" />
  <g
     inkscape:label="Laag 1"
     inkscape:groupmode="layer"
     id="layer1">
    <path
       style="fill:#ff0000;stroke-width:0.264583"
       id="path330"
       d="m 21.512122,16.898927 c -0.08808,-0.03186 -0.177046,-0.06139 -0.264248,-0.09559 -0.304093,-0.119259 -0.5713,-0.235391 -0.862697,-0.390332 -0.203046,-0.107963 -0.799941,-0.45412 -0.599387,-0.341596 2.460378,1.380436 2.940602,1.757008 1.457091,0.71261 -0.821761,-0.652241 -1.644458,-1.334801 -2.257915,-2.196141 -0.296313,-0.416046 -0.331127,-0.536901 -0.542198,-0.981882 -0.0512,-0.170322 -0.124642,-0.33549 -0.15361,-0.510967 -0.155443,-0.94164 0.170384,-1.912055 0.658341,-2.706689 0.139361,-0.226949 0.30951,-0.433491 0.464265,-0.6502366 0.614866,-0.7497085 1.360376,-1.4016283 2.250507,-1.8042144 0.473113,-0.2139783 0.669177,-0.2404988 1.164983,-0.3654284 0.195655,-0.03322 0.389717,-0.077802 0.586964,-0.09966 0.975157,-0.1080622 2.021183,0.00119 2.951322,0.3132495 0.314673,0.105574 0.614366,0.2514147 0.92155,0.3771223 0.306046,0.1565269 1.214763,0.6432864 0.918133,0.4695809 -3.37021,-1.9735787 -1.828189,-1.053373 -0.975026,-0.3567909 0.428466,0.3498313 1.009195,0.90367 1.391359,1.3206936 0.193153,0.2107718 0.370535,0.435472 0.555802,0.653208 0.580316,0.769479 1.083117,1.607171 1.393378,2.523924 0.14346,0.423896 0.180636,0.663566 0.272698,1.099679 0.112146,0.670794 0.11307,1.355913 -0.04464,2.020031 -0.08591,0.361765 -0.17953,0.571304 -0.311515,0.912415 -0.210918,0.486354 -0.443913,0.970597 -0.746789,1.407858 -0.105889,0.152868 -0.326086,0.415659 -0.444034,0.55957 -0.220988,0.267999 -0.494189,0.483457 -0.757587,0.707042 -0.09693,0.08228 -0.190595,0.168647 -0.291505,0.245992 -0.0989,0.0758 -0.205687,0.14073 -0.307245,0.212928 -0.103666,0.0737 -0.205586,0.149823 -0.308382,0.224734 -0.554321,0.425821 -1.157192,0.781725 -1.752478,1.145865 -0.342375,0.261111 -0.716747,0.476413 -1.068924,0.723111 -0.16838,0.11795 -0.264532,0.202061 -0.422187,0.3318 -0.04942,0.04462 -0.299719,0.268173 -0.350459,0.323091 -0.0976,0.105636 -0.237222,0.299751 -0.322727,0.412776 -0.252384,0.333613 -0.0854,0.103128 -0.340938,0.466179 -0.372359,0.51977 -0.705787,1.067561 -0.966372,1.651664 -0.173539,0.394543 -0.369339,0.780286 -0.482288,1.197568 -0.01442,0.0536 -0.03228,0.106384 -0.04327,0.160788 -0.03118,0.154286 -0.03777,0.306358 -0.05588,0.462756 -0.03952,0.341373 -0.07637,0.682892 -0.116495,1.02426 -0.06562,0.431091 -0.182534,0.852247 -0.251998,1.282523 -0.04116,0.254952 -0.03909,0.282985 -0.06222,0.540396 -0.04018,0.273182 -0.02306,0.5491 -0.02814,0.823663 -0.0058,0.315889 -0.02002,0.63272 -0.03257,0.948457 0.0198,0.815827 0.0349,1.630442 -0.01176,2.4456 0,0 3.326829,1.696254 3.326829,1.696254 v 0 c -0.03955,-0.807701 -0.02739,-1.615276 0.03428,-2.421726 0.01418,-0.580943 0.06825,-1.158539 0.08545,-1.739085 0.04271,-0.615736 0.105805,-1.230373 0.225413,-1.836595 0.06469,-0.322722 0.117931,-0.651076 0.194397,-0.97129 0.122705,-0.513858 0.01981,-0.0011 0.109287,-0.41561 0.01105,-0.05119 0.01963,-0.102881 0.02944,-0.154324 0.10399,-0.403849 0.222335,-0.802428 0.373437,-1.191874 0.236192,-0.562671 0.540414,-1.093865 0.918931,-1.573906 0.3159,-0.384778 0.626012,-0.774944 0.996437,-1.11015 0.456356,-0.377124 0.919803,-0.746972 1.443384,-1.029142 0.582665,-0.382327 1.131726,-0.812251 1.710076,-1.200759 0.493445,-0.355939 0.127937,-0.08892 0.617009,-0.455243 0.239598,-0.179466 0.385434,-0.274416 0.600813,-0.477055 0.08476,-0.07975 0.161739,-0.167392 0.241855,-0.251809 0.0894,-0.0942 0.17779,-0.189363 0.266684,-0.284044 0.324224,-0.406865 0.631585,-0.836262 0.854695,-1.308706 0.05891,-0.124748 0.107817,-0.253986 0.160207,-0.381611 0.0582,-0.141772 0.114359,-0.284371 0.171538,-0.426556 0.156318,-0.502765 0.146851,-0.451009 0.282633,-0.979427 0.102272,-0.398012 0.18493,-0.67095 0.198721,-1.082691 0.01214,-0.362238 -0.05684,-0.722233 -0.108226,-1.078058 -0.110064,-0.576204 -0.09581,-0.616308 -0.293296,-1.178052 -0.07481,-0.212799 -0.154519,-0.424341 -0.248136,-0.629562 C 33.179,12.883193 32.70964,12.222506 32.259774,11.55395 32.067202,11.322212 31.887302,11.079333 31.682062,10.858735 31.460378,10.62046 31.218133,10.402088 30.98086,10.179329 30.639678,9.8590146 29.728677,9.0162048 29.332223,8.765978 26.425846,6.9315797 26.700254,7.0957442 24.751705,6.1653176 24.410833,6.0315673 24.077152,5.8778004 23.72909,5.7640664 23.194213,5.5892879 22.524444,5.4542031 21.958697,5.4073043 c -0.24189,-0.020053 -0.485399,-0.016267 -0.728069,-0.011372 -0.242093,0.00488 -0.484982,0.010898 -0.725286,0.040676 -0.206992,0.025649 -0.40872,0.083442 -0.61308,0.1251632 -0.438056,0.1474896 -0.765175,0.2380851 -1.17799,0.4605645 -0.432149,0.2328989 -0.74552,0.4938337 -1.111525,0.8198472 -0.198705,0.1769932 -0.396904,0.355365 -0.580697,0.5477983 -0.189678,0.1985957 -0.358827,0.4158305 -0.53824,0.6237459 -0.236375,0.3451905 -0.733665,1.0481427 -0.921242,1.4179849 -0.257216,0.5071486 -0.340545,0.8697707 -0.428684,1.4217617 -0.03674,0.230119 -0.08802,0.461668 -0.07964,0.694553 0.007,0.1956 0.0835,0.382445 0.125252,0.573668 0.08524,0.17913 0.158487,0.364479 0.25573,0.537389 0.172363,0.306481 0.587752,0.896951 0.808815,1.152958 0.564972,0.654275 1.261043,1.179806 1.908054,1.746257 1.789969,1.377177 0.53295,0.454811 4.309816,2.677356 0.235435,0.138544 0.471776,0.275797 0.712617,0.404717 0.454526,0.243303 0.931458,0.437925 1.39645,0.659167 0,0 -3.058857,-2.400611 -3.058857,-2.400611 z" />
    <circle
       id="path332"
       style="fill:#2b0000;stroke:#000000;stroke-width:0.264583"
       cx="22.855644"
       cy="39.768818"
       r="0.0086981412" />
    <path
       style="fill:#ff0000;stroke-width:0.264583"
       id="path334"
       d="m 21.551348,37.301281 c 0.04415,0.288258 0.06488,0.578659 0.08177,0.869502 0.002,0.16614 0.01489,0.33101 0.01714,0.497198 0,0 3.451299,1.753369 3.451299,1.753369 v 0 c -0.0017,-0.167362 0.0085,-0.334197 -0.0022,-0.501316 -0.0054,-0.274688 -0.0245,-0.549138 -0.02517,-0.823788 0,0 -3.522816,-1.794965 -3.522816,-1.794965 z" />
  </g>
</svg>
